<svg xmlns="http://www.w3.org/2000/svg" viewBox="0 0 1200 900" role="img" aria-label="">
  <defs>
    <linearGradient id="bg" x1="0" y1="0" x2="1" y2="1">
      <stop offset="0" stop-color="#241D17"/>
      <stop offset="1" stop-color="#161210"/>
    </linearGradient>
    <pattern id="k" width="168" height="24" patternUnits="userSpaceOnUse">
      <rect width="168" height="24" fill="#E3A92B"/>
      <rect x="48" width="24" height="24" fill="#1B5E3A"/>
      <rect x="72" width="24" height="24" fill="#161210"/>
      <rect x="96" width="12" height="24" fill="#CE1126"/>
      <rect x="156" width="12" height="24" fill="#161210"/>
    </pattern>
  </defs>
  <rect width="1200" height="900" fill="url(#bg)"/>
  <circle cx="300" cy="240" r="380" fill="#E3A92B" opacity="0.09"/>
  <circle cx="950" cy="520" r="320" fill="#E3A92B" opacity="0.07"/>
  <circle cx="560" cy="820" r="260" fill="#E3A92B" opacity="0.1"/>
  <g transform="translate(72 352) scale(44)" fill="none" stroke="#E3A92B" stroke-width="0.95" stroke-linecap="round" stroke-linejoin="round" opacity="0.14">
    <path d="M7 5.5 C10 3.8 14.5 4 16.3 6.5 C18 8.8 17 11.6 14.4 11.8 C12.5 11.9 11.5 10.3 12.4 9"/>
    <path d="M17 18.5 C14 20.2 9.5 20 7.7 17.5 C6 15.2 7 12.4 9.6 12.2 C11.5 12.1 12.5 13.7 11.6 15"/>
    <line x1="6.9" y1="5.2" x2="5.3" y2="4.3"/>
    <line x1="6.4" y1="6.1" x2="4.6" y2="6.1"/>
    <line x1="6.9" y1="7" x2="5.7" y2="8.4"/>
    <line x1="17.1" y1="18.8" x2="18.7" y2="19.7"/>
    <line x1="17.6" y1="17.9" x2="19.4" y2="17.9"/>
    <line x1="17.1" y1="17" x2="18.3" y2="15.6"/>
  </g>
  <rect width="1200" height="24" fill="url(#k)" opacity="0.35"/>
</svg>
