<svg width="1200" height="630" viewBox="0 0 1200 630" xmlns="http://www.w3.org/2000/svg">
  <defs>
    <linearGradient id="bgGradient-22" x1="0%" y1="0%" x2="100%" y2="100%">
      <stop offset="0%" style="stop-color:#F5C969;stop-opacity:1" />
      <stop offset="50%" style="stop-color:#f5576c;stop-opacity:1" />
      <stop offset="100%" style="stop-color:#fda085;stop-opacity:1" />
    </linearGradient>

    <linearGradient id="overlayGradient-22" x1="0%" y1="0%" x2="0%" y2="100%">
      <stop offset="0%" style="stop-color:#000000;stop-opacity:0" />
      <stop offset="100%" style="stop-color:#000000;stop-opacity:0.3" />
    </linearGradient>

    <filter id="glow-22">
      <feGaussianBlur stdDeviation="4" result="coloredBlur"/>
      <feMerge>
        <feMergeNode in="coloredBlur"/>
        <feMergeNode in="SourceGraphic"/>
      </feMerge>
    </filter>
  </defs>

  <!-- Background gradient -->
  <rect width="1200" height="630" fill="url(#bgGradient-22)"/>

  <!-- Overlay gradient -->
  <rect width="1200" height="630" fill="url(#overlayGradient-22)"/>

  <!-- Decorative circles -->
  <circle cx="225" cy="125" r="120" fill="white" opacity="0.05"/>
  <circle cx="975" cy="505" r="150" fill="white" opacity="0.05"/>
  <circle cx="600" cy="315" r="200" fill="white" opacity="0.03"/>

  <!-- Geometric pattern -->
  <g opacity="0.1">
    <rect x="260" y="70" width="80" height="80" fill="white" transform="rotate(90 300 110)"/>
    <rect x="860" y="430" width="60" height="60" fill="white" transform="rotate(-90 890 460)"/>
  </g>

  <!-- Category badge -->
  <g transform="translate(60, 50)">
    <rect width="180" height="50" rx="25" fill="white" opacity="0.2"/>
    <text x="90" y="33" font-family="Arial, sans-serif" font-size="18" font-weight="700" fill="white" text-anchor="middle">
      INDUSTRIES
    </text>
  </g>

  <!-- Category icon -->
  <g transform="translate(60, 520)">
    <circle r="40" cx="40" cy="40" fill="white" opacity="0.2"/>
    <svg x="16" y="16" width="48" height="48" viewBox="0 0 24 24">
      <path d="M20 6h-4V4c0-1.11-.89-2-2-2h-4c-1.11 0-2 .89-2 2v2H4c-1.11 0-1.99.89-1.99 2L2 19c0 1.11.89 2 2 2h16c1.11 0 2-.89 2-2V8c0-1.11-.89-2-2-2zm-6 0h-4V4h4v2z" fill="white" opacity="0.3"/>
    </svg>
  </g>

  <!-- Title -->
  <g transform="translate(100, 280)">
    <text x="0" y="0" font-family="Arial, sans-serif" font-size="64" font-weight="900" fill="white" filter="url(#glow-22)">
      Healthcare Software
    </text>
    <text x="0" y="80" font-family="Arial, sans-serif" font-size="64" font-weight="900" fill="white" filter="url(#glow-22)">
      Development
    </text>
  </g>

  <!-- Bottom branding -->
  <g transform="translate(100, 560)">
    <text x="0" y="0" font-family="Arial, sans-serif" font-size="24" font-weight="600" fill="white" opacity="0.9">
      OHWP Studios
    </text>
  </g>

  <!-- Decorative dots -->
  <circle cx="1100" cy="80" r="8" fill="white" opacity="0.6"/>
  <circle cx="1130" cy="100" r="6" fill="white" opacity="0.4"/>
  <circle cx="1120" cy="130" r="10" fill="white" opacity="0.5"/>
</svg>